<svg width="146" height="152" viewBox="0 0 146 152" fill="none" xmlns="http://www.w3.org/2000/svg">
<path d="M146 76C146 117.974 113.317 152 73 152C32.6832 152 0 117.974 0 76C0 34.0264 32.6832 0 73 0C113.317 0 146 34.0264 146 76Z" fill="#374260"/>
<path d="M138.448 76C138.448 113.741 109.146 144.336 73 144.336C36.8539 144.336 7.55172 113.741 7.55172 76C7.55172 38.259 36.8539 7.66387 73 7.66387C109.146 7.66387 138.448 38.259 138.448 76Z" fill="#B63C39"/>
<path d="M87.5493 29.7751C91.1058 26.2724 96.5879 26.4342 99.9536 30.1414C103.354 33.887 103.357 39.8846 99.9606 43.6432L83.0146 62.394L103.996 81.9044C108.869 86.4358 109.171 94.4613 104.653 99.3413C100.396 103.939 93.4837 103.956 89.1541 99.3799L68.9197 77.9901L48.7969 100.259C44.2865 105.25 36.8005 105.038 32.5498 99.7995C28.5785 94.9051 28.9679 87.4735 33.4253 83.083L54.2936 62.5279L42.9737 50.5625C39.5302 46.9222 39.345 41.0136 42.5537 37.175C45.7991 33.2928 51.336 32.9351 55.0291 36.3694L68.3114 48.7206L87.5493 29.7751Z" fill="white"/>
</svg>
