<svg width="589" height="96" viewBox="0 0 589 96" fill="none" xmlns="http://www.w3.org/2000/svg">
<path d="M136.623 26.3355L115.646 29.8469L97.8955 63.7904H122.907L555.765 59.9864L550.117 32.4804L544.469 29.8469L515.424 27.7986L500.901 30.7247V8.19326L477.504 1.7557L464.191 8.19326V36.5771H460.56V10.8268L435.549 5.85233L423.447 10.8268C423.447 10.8268 433.658 35.0528 423.447 40.6737C420.061 42.5374 413.765 42.722 413.765 42.722V29.8469L388.35 27.7986L378.265 30.7247L379.879 49.1596H374.231V34.2361L350.026 32.4804L339.134 34.2361V44.1851L321.384 46.2334V50.9153H315.736V46.2334H279.43V49.1596L275.396 50.9153V34.2361L257.646 29.8469L247.56 32.4804V26.3355H237.878L229.003 34.2361V44.1851H219.725V24.5798L212.464 22.5315V7.31541L203.992 2.92616L191.083 5.85233V0H187.049V7.31541L180.191 9.07111V22.5315L172.123 24.5798V50.9153H168.089V29.8469L136.623 26.3355Z" fill="#99CDFF"/>
<path d="M580.033 44.6307C582.656 43.3728 586.59 44.1066 588.23 44.6307V94.7197H0.5V46.203C8.0413 40.8122 23.0419 40.5128 29.5996 41.0369C77.4705 21.8099 105.559 40.962 113.62 52.9414C125.751 51.5039 132.883 55.9363 134.932 58.3322H498.882C508.39 52.4023 526.615 52.1178 534.539 52.7168C542.736 37.6227 568.284 41.0369 580.033 44.6307Z" fill="#568AD6" stroke="#0050C6"/>
<path d="M216.244 70.44C217.655 70.44 218.893 70.643 219.956 71.049C221.039 71.4356 221.58 71.9673 221.58 72.644C221.58 73.3206 221.319 74.1616 220.797 75.167C220.294 76.153 219.869 76.646 219.521 76.646C219.424 76.646 219.308 76.5976 219.173 76.501C219.057 76.385 218.767 76.269 218.303 76.153C217.858 76.0176 217.472 75.95 217.143 75.95C216.022 75.95 215.113 76.3463 214.417 77.139C213.74 77.9316 213.402 79.1496 213.402 80.793C213.402 82.417 213.75 83.6253 214.446 84.418C215.161 85.2106 216.06 85.607 217.143 85.607C217.588 85.607 218.081 85.549 218.622 85.433C219.183 85.2976 219.579 85.114 219.811 84.882C219.85 84.8433 219.927 84.824 220.043 84.824C220.159 84.824 220.372 85.0463 220.681 85.491C221.01 85.9163 221.309 86.4866 221.58 87.202C221.851 87.898 221.986 88.4393 221.986 88.826C221.986 89.58 221.406 90.1793 220.246 90.624C219.086 91.0686 217.713 91.291 216.128 91.291C213.576 91.291 211.478 90.392 209.835 88.594C208.192 86.796 207.37 84.2633 207.37 80.996C207.37 77.7093 208.211 75.1283 209.893 73.253C211.594 71.3776 213.711 70.44 216.244 70.44ZM237.836 91.059C236.154 91.059 235.245 90.7883 235.11 90.247L234.153 86.506H229.542L228.701 90.102C228.585 90.7013 227.657 91.001 225.917 91.001C224.989 91.001 224.303 90.9526 223.858 90.856C223.413 90.74 223.191 90.653 223.191 90.595L228.324 70.962C228.324 70.8073 229.648 70.73 232.297 70.73C234.946 70.73 236.27 70.8073 236.27 70.962L241.287 90.624C241.287 90.7593 240.842 90.8656 239.953 90.943C239.064 91.0203 238.358 91.059 237.836 91.059ZM230.267 82.823H233.312L232.007 76.82H231.833L230.267 82.823ZM243.963 83.925C244.33 84.215 244.958 84.6113 245.848 85.114C246.756 85.6166 247.617 85.868 248.429 85.868C249.26 85.868 249.676 85.549 249.676 84.911C249.676 84.621 249.56 84.3696 249.328 84.157C249.096 83.925 248.67 83.664 248.052 83.374C247.433 83.084 246.969 82.8616 246.66 82.707C246.35 82.533 245.935 82.2623 245.413 81.895C244.91 81.5083 244.523 81.112 244.253 80.706C243.479 79.604 243.093 78.2023 243.093 76.501C243.093 74.7996 243.721 73.369 244.978 72.209C246.254 71.0296 247.916 70.44 249.966 70.44C251.358 70.44 252.643 70.5946 253.823 70.904C255.002 71.194 255.611 71.5806 255.65 72.064C255.65 72.122 255.65 72.18 255.65 72.238C255.65 72.9146 255.437 73.775 255.012 74.819C254.586 75.8436 254.287 76.414 254.113 76.53C252.875 75.892 251.764 75.573 250.778 75.573C249.811 75.573 249.328 75.921 249.328 76.617C249.328 77.0423 249.685 77.4193 250.401 77.748C250.555 77.8253 250.778 77.9316 251.068 78.067C251.358 78.2023 251.686 78.3666 252.054 78.56C252.44 78.734 252.846 78.966 253.272 79.256C253.716 79.5266 254.19 79.894 254.693 80.358C255.717 81.3246 256.23 82.6006 256.23 84.186C256.23 86.2546 255.659 87.9463 254.519 89.261C253.378 90.5756 251.619 91.2523 249.241 91.291C248.081 91.291 247.027 91.1943 246.08 91.001C245.152 90.8076 244.34 90.4306 243.644 89.87C242.948 89.3093 242.6 88.6326 242.6 87.84C242.6 87.0473 242.745 86.2643 243.035 85.491C243.325 84.6983 243.634 84.1763 243.963 83.925ZM274.391 90.508C274.391 90.8366 273.415 91.001 271.462 91.001C269.509 91.001 268.533 90.8366 268.533 90.508V83.838H264.473V90.508C264.473 90.8366 263.497 91.001 261.544 91.001C259.591 91.001 258.615 90.8366 258.615 90.508V71.281C258.615 70.875 259.591 70.672 261.544 70.672C263.497 70.672 264.473 70.875 264.473 71.281V78.096H268.533V71.339C268.533 71.0683 269.016 70.875 269.983 70.759C270.486 70.7203 270.979 70.701 271.462 70.701L272.941 70.759C273.908 70.875 274.391 71.0683 274.391 71.339V90.508ZM282.454 89.29V71.252C282.454 70.846 283.43 70.643 285.383 70.643C287.355 70.643 288.341 70.846 288.341 71.252V85.462H292.807C293.155 85.462 293.397 85.9163 293.532 86.825C293.59 87.2696 293.619 87.724 293.619 88.188C293.619 88.652 293.59 89.1256 293.532 89.609C293.377 90.537 293.126 91.001 292.778 91.001H283.846C283.421 91.001 283.082 90.827 282.831 90.479C282.58 90.131 282.454 89.7346 282.454 89.29ZM304.771 78.763C305.139 78.763 305.322 79.4396 305.322 80.793C305.322 81.199 305.274 81.6823 305.177 82.243C305.1 82.7843 304.945 83.055 304.713 83.055H301.03V85.955H306.366C306.695 85.955 306.917 86.3803 307.033 87.231C307.091 87.5983 307.12 87.9946 307.12 88.42C307.12 88.826 307.062 89.3576 306.946 90.015C306.83 90.6723 306.637 91.001 306.366 91.001H296.448C295.714 91.001 295.346 90.7013 295.346 90.102V71.455C295.346 70.9523 295.569 70.701 296.013 70.701H306.395C306.801 70.701 307.004 71.5613 307.004 73.282C307.004 74.9833 306.801 75.834 306.395 75.834H301.03V78.763H304.771ZM309.648 89.667V72.267C309.648 71.7836 309.764 71.4066 309.996 71.136C310.248 70.846 310.567 70.701 310.953 70.701H315.796C318.87 70.701 321.2 71.4743 322.785 73.021C324.39 74.5676 325.192 77.0036 325.192 80.329C325.192 87.4436 322.157 91.001 316.086 91.001H311.127C310.141 91.001 309.648 90.5563 309.648 89.667ZM315.216 76.211V84.882C315.216 85.288 315.245 85.549 315.303 85.665C315.361 85.7616 315.535 85.81 315.825 85.81C316.889 85.81 317.691 85.4136 318.232 84.621C318.793 83.8283 319.073 82.5136 319.073 80.677C319.073 78.821 318.783 77.6126 318.203 77.052C317.643 76.4913 316.744 76.211 315.506 76.211H315.216ZM338.248 84.94L338.306 80.996C338.306 80.7253 338.587 80.5513 339.147 80.474C339.708 80.3773 340.172 80.329 340.539 80.329L341.67 80.416C342.405 80.532 342.772 80.735 342.772 81.025L342.656 90.102C342.27 90.3726 341.487 90.6433 340.307 90.914C339.147 91.1653 337.813 91.291 336.305 91.291C333.502 91.291 331.24 90.3823 329.519 88.565C327.799 86.7476 326.938 84.0796 326.938 80.561C326.938 77.5643 327.779 75.1283 329.461 73.253C331.143 71.3776 333.473 70.44 336.45 70.44C337.804 70.44 339.022 70.5753 340.104 70.846C341.206 71.0973 341.96 71.4453 342.366 71.89C342.386 72.0446 342.395 72.3346 342.395 72.76C342.395 73.1853 342.25 73.7943 341.96 74.587C341.67 75.3603 341.342 75.9403 340.974 76.327C340.607 76.7136 340.336 76.907 340.162 76.907C340.008 76.907 339.834 76.8393 339.64 76.704C339.466 76.5493 339.109 76.3946 338.567 76.24C338.026 76.066 337.504 75.979 337.001 75.979C335.803 75.979 334.826 76.3656 334.072 77.139C333.338 77.9123 332.97 79.111 332.97 80.735C332.97 82.359 333.347 83.5963 334.101 84.447C334.875 85.2783 335.754 85.694 336.74 85.694C337.746 85.694 338.248 85.4426 338.248 84.94ZM354.955 78.763C355.322 78.763 355.506 79.4396 355.506 80.793C355.506 81.199 355.458 81.6823 355.361 82.243C355.284 82.7843 355.129 83.055 354.897 83.055H351.214V85.955H356.55C356.879 85.955 357.101 86.3803 357.217 87.231C357.275 87.5983 357.304 87.9946 357.304 88.42C357.304 88.826 357.246 89.3576 357.13 90.015C357.014 90.6723 356.821 91.001 356.55 91.001H346.632C345.897 91.001 345.53 90.7013 345.53 90.102V71.455C345.53 70.9523 345.752 70.701 346.197 70.701H356.579C356.985 70.701 357.188 71.5613 357.188 73.282C357.188 74.9833 356.985 75.834 356.579 75.834H351.214V78.763H354.955ZM365.371 90.595C365.371 90.9043 364.453 91.059 362.616 91.059C360.76 91.059 359.832 90.914 359.832 90.624V71.716C359.832 71.0393 360.19 70.701 360.905 70.701H366.444C371.529 70.701 374.071 72.6826 374.071 76.646C374.071 77.8446 373.839 78.937 373.375 79.923C372.911 80.8896 372.254 81.663 371.403 82.243L375.057 88.333C374.902 88.797 374.4 89.3286 373.549 89.928C372.389 90.7593 371.432 91.175 370.678 91.175C369.924 91.175 369.363 90.9043 368.996 90.363L366.27 84.012H365.371V90.595ZM365.371 75.834V80.184H365.516C367.353 80.184 368.271 79.4203 368.271 77.893C368.271 77.197 368.087 76.6846 367.72 76.356C367.372 76.008 366.792 75.834 365.98 75.834H365.371Z" fill="white" stroke="#000000" stroke-width="4" stroke-linejoin="round"/>
</svg>
