<svg width="589" height="96" viewBox="0 0 589 96" fill="none" xmlns="http://www.w3.org/2000/svg">
<path d="M136.623 26.3355L115.646 29.8469L97.8955 63.7904H122.907L555.765 59.9864L550.117 32.4804L544.469 29.8469L515.424 27.7986L500.901 30.7247V8.19326L477.504 1.7557L464.191 8.19326V36.5771H460.56V10.8268L435.549 5.85233L423.447 10.8268C423.447 10.8268 433.658 35.0528 423.447 40.6737C420.061 42.5374 413.765 42.722 413.765 42.722V29.8469L388.35 27.7986L378.265 30.7247L379.879 49.1596H374.231V34.2361L350.026 32.4804L339.134 34.2361V44.1851L321.384 46.2334V50.9153H315.736V46.2334H279.43V49.1596L275.396 50.9153V34.2361L257.646 29.8469L247.56 32.4804V26.3355H237.878L229.003 34.2361V44.1851H219.725V24.5798L212.464 22.5315V7.31541L203.992 2.92616L191.083 5.85233V0H187.049V7.31541L180.191 9.07111V22.5315L172.123 24.5798V50.9153H168.089V29.8469L136.623 26.3355Z" fill="#99CDFF"/>
<path d="M580.033 44.6307C582.656 43.3728 586.59 44.1066 588.23 44.6307V94.7197H0.5V46.203C8.0413 40.8122 23.0419 40.5128 29.5996 41.0369C77.4705 21.8099 105.559 40.962 113.62 52.9414C125.751 51.5039 132.883 55.9363 134.932 58.3322H498.882C508.39 52.4023 526.615 52.1178 534.539 52.7168C542.736 37.6227 568.284 41.0369 580.033 44.6307Z" fill="#568AD6" stroke="#0050C6"/>
</svg>
